<?xml version="1.0" encoding="utf-8"?>
<!-- Generator: Adobe Illustrator 21.0.0, SVG Export Plug-In . SVG Version: 6.00 Build 0)  -->
<svg version="1.1" id="Capa_1" xmlns="http://www.w3.org/2000/svg" xmlns:xlink="http://www.w3.org/1999/xlink" x="0px" y="0px"
	 viewBox="0 0 512 512" style="enable-background:new 0 0 512 512;" xml:space="preserve">
<style type="text/css">
	.st0{fill:#364061;}
	.st1{fill:#1ABB9C;}
	.st2{fill:#055646;}
	.st3{fill:#DB8D07;}
	.st4{opacity:0.3;enable-background:new    ;}
	.st5{fill:#DDDDDB;}
</style>
<polygon class="st0" points="211.9,282.5 211.9,0 176.6,0 176.6,17.7 176.6,141.2 176.6,264.8 176.6,300.1 176.6,476.7 229.5,476.7 
	300.1,476.7 406.1,476.7 476.7,476.7 512,476.7 512,423.7 211.9,423.7 "/>
<g>
	<polygon class="st1" points="123.6,141.2 176.6,141.2 176.6,17.7 123.6,17.7 123.6,79.4 105.9,70.6 88.3,79.4 88.3,17.7 35.3,17.7 
		35.3,141.2 88.3,141.2 	"/>
	<polygon class="st1" points="176.6,141.2 123.6,141.2 123.6,203 105.9,194.2 88.3,203 88.3,141.2 35.3,141.2 35.3,264.8 
		176.6,264.8 	"/>
</g>
<polygon class="st0" points="35.3,264.8 0,264.8 0,300.1 176.6,300.1 176.6,264.8 "/>
<g>
	<polygon class="st2" points="105.9,70.6 123.6,79.4 123.6,17.7 88.3,17.7 88.3,79.4 	"/>
	<polygon class="st2" points="88.3,203 105.9,194.2 123.6,203 123.6,141.2 88.3,141.2 	"/>
	<path class="st3" d="M264.8,512c19.4,0,35.3-15.9,35.3-35.3h-70.6C229.5,496.1,245.4,512,264.8,512z"/>
</g>
<g class="st4">
	<path d="M300.1,476.7h-70.6c0,2.6,0.9,6.2,0.9,8.8h68C299.3,482.9,300.1,479.3,300.1,476.7z"/>
</g>
<path class="st3" d="M441.4,512c19.4,0,35.3-15.9,35.3-35.3h-70.6C406.1,496.1,422,512,441.4,512z"/>
<g class="st4">
	<polygon points="167.7,17.7 167.7,132.4 123.6,132.4 88.3,132.4 35.3,132.4 35.3,141.2 88.3,141.2 123.6,141.2 167.7,141.2 
		167.7,256 35.3,256 35.3,264.8 167.7,264.8 176.6,264.8 176.6,256 176.6,141.2 176.6,132.4 176.6,17.7 	"/>
</g>
<g class="st4">
	<path d="M476.7,476.7h-70.6c0,2.6,0.9,6.2,0.9,8.8h68C475.8,482.9,476.7,479.3,476.7,476.7z"/>
</g>
<path class="st0" d="M211.9,282.5v141.2H512V17.7H282.5L211.9,282.5z"/>
<polygon class="st5" points="309,53 264.8,229.5 300.1,229.5 476.7,229.5 476.7,53 "/>
<polygon class="st0" points="288.7,184.5 306.3,190.7 294,229.5 300.1,229.5 312.5,229.5 323.1,196.9 341.6,202.2 346.9,186.3 
	294,168.6 "/>
<g>
	<rect x="414.9" y="256" class="st5" width="61.8" height="17.7"/>
</g>
<g class="st4">
	<polygon points="512,414.9 220.7,414.9 220.7,273.7 220.7,249.8 211.9,282.5 211.9,423.7 512,423.7 	"/>
</g>
</svg>
